<svg xmlns="http://www.w3.org/2000/svg" width="24" height="24" viewBox="0 0 24 24"><path fill-rule="evenodd" clip-rule="evenodd" fill="#fff" d="M14.807 9.278c-4.736-4.763-10.609-4.223-10.609-4.223l.011 2.663s4.922-.057 8.549 3.589c3.626 3.646 3.457 8.256 3.457 8.256l2.891-.006c-.001-.001.436-5.517-4.299-10.279zm-10.608.936c.002 1.099-.005 1.721-.015 2.646 1.581.068 3.663.115 5.191 1.828s1.569 3 1.917 4.867c1.308 0 1.633-.008 2.71-.028-.147-1.982-.983-4.789-2.668-6.61-1.686-1.821-5.084-2.715-7.135-2.703zm2.019 5.307c-1.118 0-2.024.906-2.024 2.024 0 1.118.906 2.024 2.024 2.024 1.118 0 2.024-.906 2.024-2.024 0-1.118-.906-2.024-2.024-2.024z"/></svg>
