<svg width="36" height="30" viewBox="0 0 36 30" xmlns="http://www.w3.org/2000/svg"><title>Imported Layers Copy 12</title><path d="M36.04 3.92c-1.31.58-2.714.973-4.19 1.15 1.507-.903 2.663-2.332 3.207-4.035-1.41.836-2.97 1.443-4.63 1.77-1.33-1.418-3.225-2.303-5.322-2.303-4.027 0-7.29 3.265-7.29 7.29 0 .573.063 1.13.187 1.663C11.942 9.15 6.57 6.248 2.974 1.837c-.628 1.077-.988 2.33-.988 3.665 0 2.53 1.287 4.76 3.244 6.07-1.195-.04-2.32-.366-3.303-.912v.09c0 3.534 2.513 6.48 5.848 7.15-.61.167-1.255.256-1.92.256-.47 0-.926-.045-1.372-.13.928 2.896 3.62 5.005 6.81 5.063-2.495 1.955-5.638 3.12-9.054 3.12-.59 0-1.17-.034-1.74-.102 3.226 2.07 7.058 3.277 11.177 3.277 13.41 0 20.745-11.11 20.745-20.747 0-.315-.007-.63-.02-.943 1.423-1.027 2.66-2.312 3.637-3.774" fill="#FFF" fill-rule="evenodd"/></svg>