<svg width="41" height="24" viewBox="0 0 41 24" xmlns="http://www.w3.org/2000/svg"><title>Imported Layers Copy 15</title><path d="M40.568 21.257c-.05-.105-.095-.19-.137-.262-.698-1.258-2.034-2.803-4.005-4.634l-.042-.042-.02-.02-.022-.02h-.02c-.894-.855-1.46-1.428-1.7-1.72-.433-.56-.53-1.127-.293-1.7.168-.434.797-1.35 1.888-2.748.573-.74 1.028-1.335 1.362-1.782 2.42-3.217 3.468-5.272 3.147-6.166l-.125-.21c-.085-.125-.3-.24-.65-.345-.35-.105-.798-.123-1.343-.053l-6.04.042c-.098-.034-.238-.032-.42.01l-.273.064-.105.053-.084.063c-.07.04-.147.114-.23.22-.084.104-.154.227-.21.367C30.588 4.065 29.84 5.637 29 7.09c-.516.868-.992 1.62-1.425 2.256-.434.636-.797 1.105-1.09 1.405-.294.302-.56.543-.797.724-.24.182-.42.26-.545.23-.126-.028-.245-.056-.357-.083-.196-.125-.353-.296-.47-.513-.12-.216-.2-.49-.243-.818-.04-.33-.066-.612-.074-.85-.007-.237-.004-.574.01-1.007.014-.433.022-.727.022-.88 0-.532.01-1.11.03-1.73.02-.624.04-1.116.053-1.48.014-.363.02-.747.02-1.154 0-.405-.024-.723-.073-.954-.048-.23-.122-.454-.22-.672-.098-.216-.24-.384-.43-.502-.188-.12-.422-.214-.7-.284C21.968.61 21.024.52 19.878.505c-2.6-.028-4.272.14-5.014.504-.294.152-.56.362-.797.627-.252.308-.287.477-.106.504.84.127 1.433.428 1.784.903l.125.252c.098.18.196.503.293.964.098.46.16.97.188 1.53.07 1.02.07 1.894 0 2.622-.068.727-.135 1.293-.198 1.698-.063.406-.157.734-.283.987-.125.25-.21.404-.253.46-.04.057-.076.09-.104.105-.182.07-.37.106-.567.106-.195 0-.433-.098-.714-.294-.278-.196-.57-.465-.87-.808-.3-.342-.64-.82-1.017-1.437-.378-.616-.77-1.342-1.175-2.182l-.336-.608c-.21-.39-.497-.96-.86-1.71-.364-.747-.685-1.47-.965-2.17-.11-.293-.28-.517-.504-.67l-.103-.064c-.07-.055-.182-.115-.336-.18-.153-.062-.313-.107-.48-.135l-5.748.043c-.587 0-.985.133-1.195.398l-.084.127C.52 2.147.5 2.26.5 2.413c0 .155.04.343.126.567.84 1.97 1.75 3.872 2.737 5.703.986 1.833 1.842 3.308 2.568 4.426.73 1.118 1.47 2.173 2.224 3.165.756.993 1.256 1.63 1.5 1.91.245.28.438.488.577.628l.525.504c.336.336.828.738 1.48 1.205.65.47 1.37.93 2.16 1.385.79.454 1.708.825 2.758 1.112 1.048.285 2.07.4 3.062.344h2.412c.488-.04.86-.196 1.11-.46l.084-.105c.057-.086.11-.215.158-.39.05-.174.074-.367.074-.577-.014-.6.03-1.142.136-1.625.104-.48.223-.844.357-1.09.133-.245.282-.45.45-.618.168-.168.287-.27.358-.304.07-.036.124-.06.167-.074.336-.112.73-.003 1.185.325.454.33.88.734 1.28 1.217.398.482.877 1.024 1.435 1.625.56.6 1.05 1.047 1.468 1.34l.42.253c.28.168.643.322 1.09.46.448.142.84.177 1.175.107l5.37-.085c.53 0 .943-.087 1.236-.262.293-.175.467-.367.523-.576.057-.21.06-.447.01-.714-.05-.265-.098-.45-.145-.556z" fill="#FFF" fill-rule="evenodd"/></svg>