<svg x="0px" y="0px" viewBox="0 0 22 22" version="1.1" xmlns="http://www.w3.org/2000/svg" xmlns:xlink="http://www.w3.org/1999/xlink">
            <path fill="#A0B0B9"
              d="M11,0L0,5.2v1c0,0.6,0.5,1,1.1,1h19.8c0.6,0,1.1-0.5,1.1-1v-1L11,0z M5.5,10.5v5.2
	c0.6,0,1.1,0.5,1.1,1c0,0.6-0.5,1-1.1,1H3.3c-0.6,0-1.1-0.5-1.1-1c0-0.6,0.5-1,1.1-1v-5.2c-0.6,0-1.1-0.5-1.1-1c0-0.6,0.5-1,1.1-1
	h2.2c0.6,0,1.1,0.5,1.1,1C6.6,10,6.1,10.5,5.5,10.5z M12.1,15.7v-5.2c0.6,0,1.1-0.5,1.1-1c0-0.6-0.5-1-1.1-1H9.9
	c-0.6,0-1.1,0.5-1.1,1c0,0.6,0.5,1,1.1,1v5.2c-0.6,0-1.1,0.5-1.1,1c0,0.6,0.5,1,1.1,1h2.2c0.6,0,1.1-0.5,1.1-1
	C13.2,16.2,12.7,15.7,12.1,15.7z M18.7,15.7v-5.2c0.6,0,1.1-0.5,1.1-1c0-0.6-0.5-1-1.1-1h-2.2c-0.6,0-1.1,0.5-1.1,1
	c0,0.6,0.5,1,1.1,1v5.2c-0.6,0-1.1,0.5-1.1,1c0,0.6,0.5,1,1.1,1h2.2c0.6,0,1.1-0.5,1.1-1C19.8,16.2,19.3,15.7,18.7,15.7z M0,19.9
	c0-0.6,0.5-1,1.1-1h19.8c0.6,0,1.1,0.5,1.1,1v1c0,0.6-0.5,1-1.1,1H1.1C0.5,22,0,21.5,0,21V19.9z"
            />
          </svg>