<svg x="0px" y="0px" viewBox="0 0 22 22" version="1.1" xmlns="http://www.w3.org/2000/svg" xmlns:xlink="http://www.w3.org/1999/xlink">
            <path fill="#A0B0B9"
             d="M21,8.1h-4.8l-4.4-7.6C11.6,0.2,11.3,0,11,0s-0.6,0.2-0.8,0.5L5.8,8.1H1c-0.6,0-1,0.5-1,1.2c0,0.1,0,0.2,0,0.3
	l2.5,10.7c0.2,1,1,1.7,1.9,1.7h13c0.9,0,1.7-0.7,1.9-1.7L22,9.6l0-0.3C22,8.6,21.5,8.1,21,8.1z M11,17.3c-1.1,0-2-1-2-2.3
	c0-1.3,0.9-2.3,2-2.3s2,1,2,2.3C13,16.3,12.1,17.3,11,17.3z M8,8.1L11,3l3,5.1H8z"
            />
          </svg>