<svg x="0px" y="0px" viewBox="0 0 22 22" version="1.1" xmlns="http://www.w3.org/2000/svg" xmlns:xlink="http://www.w3.org/1999/xlink">
            <path fill="#A0B0B9"
              d="M1.8,4c1-0.8,2.3-1.1,3.7-1C7.4,3.3,9.1,4,10.6,4.9L11,5.2c0-0.2,0.1-0.3,0.1-0.4
	c0.3-1.2,1-2.3,2.1-3c1.6-1.1,3.5-0.9,5,0.1c-2,0.2-3.3,1.3-4.5,2.6c0.6-0.1,1.1-0.2,1.6-0.2c1-0.1,2-0.1,3.1,0.1
	c1.9,0.4,2.9,1.5,3.4,3.1C21.9,8,21.9,8.6,22,9.2l-0.1,0c-0.1-0.1-0.2-0.2-0.4-0.3C20.3,7.8,18.8,7,17,6.7C16,6.6,15,6.6,14,7
	c-0.2,0.1-0.3,0.1-0.4,0.2c2.5,0.2,4.4,1.4,5.9,3.1c1.5,1.8,1.6,3.7,0.4,5.6c-0.6,1-1.7,2.2-2.7,2.8c0-0.3,0-0.7-0.1-1
	c-0.3-2.1-0.9-4.1-2.1-6c-0.6-0.9-1.3-1.6-2.4-2.1c-0.1-0.1-0.2-0.1-0.4-0.2c0,0.2,0,0.3,0,0.4c-0.1,2.5-0.4,4.9-1,7.3
	c-0.4,1.2-0.8,2.5-1.6,3.6c0,0-0.3,0.3-0.3,0.3C8.9,21.7,8.1,22,7.5,22l-4,0c-1.2,0-1.5-0.6-0.6-1.4c0,0,1.1-0.9,2.2-2
	c2.4-2.3,3.8-5,4.3-8c0.1-0.3,0.1-0.7,0.2-1.1c-2.1,0.6-3.7,1.7-5,3.2c-1.3,1.4-2.1,3.1-2.1,4.9c0,0-0.1,0-0.1,0
	c-1.1-0.9-1.9-2-2.1-3.3C0,13,0.4,11.7,1.3,10.6c1.4-1.7,3.4-2.9,5.8-3.3c0.2,0,0.5-0.1,0.7-0.1c0.2,0,0.4,0,0.7,0
	C8.1,6.9,7.7,6.7,7.2,6.6C6.1,6.3,4.9,6.4,3.8,6.6C2.4,7,1.2,7.5,0,8.3C0.1,6.7,0.4,5.2,1.8,4L1.8,4z"
            />
          </svg>