<svg x="0px" y="0px" viewBox="0 0 22 22" version="1.1" xmlns="http://www.w3.org/2000/svg" xmlns:xlink="http://www.w3.org/1999/xlink">
            <g>
             <path fill="#A0B0B9" d="M5.1,9.9L4,7.7H0v2.2h2.6c0,0,2.2,4.5,2.5,4.9c-1.3,0.6-2.1,1.9-2.1,3.4c0,2.1,1.8,3.8,4.1,3.8
		c2,0,3.7-1.4,4-3.3h2.4c0.3,1.9,2,3.3,4,3.3c2.2,0,4.1-1.7,4.1-3.8c0-1.1-0.5-2.2-1.4-2.9c1.2-1.5,1.9-3.4,1.9-5.4H5.1z M6.9,19.8
		c-1,0-1.7-0.7-1.7-1.6c0-0.9,0.8-1.7,1.7-1.7c1,0,1.7,0.7,1.7,1.7C8.7,19.1,7.9,19.8,6.9,19.8z M17.4,19.8c-1,0-1.7-0.7-1.7-1.6
		c0-0.9,0.8-1.7,1.7-1.7c1,0,1.7,0.7,1.7,1.7C19.1,19.1,18.3,19.8,17.4,19.8z" />
              <path fill="#A0B0B9" d="M12.7,0v8.8H22C22,3.9,17.9,0,12.7,0z" />
            </g>
          </svg>