<?xml version="1.0" encoding="utf-8"?>
<!-- Generator: Adobe Illustrator 21.1.0, SVG Export Plug-In . SVG Version: 6.00 Build 0)  -->
<svg version="1.1" id="Layer_1" xmlns="http://www.w3.org/2000/svg" xmlns:xlink="http://www.w3.org/1999/xlink" x="0px" y="0px"
	 viewBox="0 0 512 512" style="enable-background:new 0 0 512 512;" xml:space="preserve">
<style type="text/css">
	.st0{fill:#323232;}
</style>
<path class="st0" d="M3.3,139.5c0-7.5,3.9-11.6,11.6-11.6H30V88.1c0-5.2,0.5-10.5,0.5-10.5h-0.4c0,0-1.8,2.7-2.8,3.7
	c-4.5,4.3-10.5,4.5-15.7-1.1L6.1,74c-5.3-5.3-5-11.2,0.5-16.4l21.7-19.9c4.4-4.1,8.4-5.7,14.4-5.7h12.1c7.7,0,11.7,3.9,11.7,11.6
	V128h15.5c7.7,0,11.6,4.1,11.6,11.6v8.9c0,7.5-3.9,11.6-11.6,11.6H14.8c-7.7,0-11.6-4.1-11.6-11.6L3.3,139.5L3.3,139.5z M2.2,304.6
	c0-47.3,51-56.4,51-69.2c0-7.2-6-8.8-9.3-8.8c-3.2,0-6.5,1.1-9.5,3.9c-5.1,4.9-10.5,7-16.1,2.5l-8.6-6.8c-5.8-4.6-7.2-9.8-2.8-15.4
	C13.6,202,26,192,47.4,192c19.4,0,44.5,10.5,44.5,39.6c0,38.3-46.8,46.4-48.7,56.9h39c7.5,0,11.6,4,11.6,11.4v8.8
	c0,7.4-4,11.4-11.6,11.4H14.3c-7,0-12.1-4-12.1-11.4L2.2,304.6L2.2,304.6z M5.7,454.6l5.6-9.3c3.9-6.7,9.1-7,15.6-3.2
	c4.9,2.1,9.6,3.2,14.4,3.2c10.2,0,14.4-3.5,14.4-8.2c0-6.7-5.6-9.1-15.9-9.1h-4.7c-6,0-9.3-2.1-12.3-7.9l-1-1.9
	c-2.5-4.7-1.2-9.8,2.8-14.9l5.6-7c6.8-8.4,12.3-13.5,12.3-13.5v-0.4c0,0-4.2,1.1-12.6,1.1h-13c-7.5,0-11.4-4-11.4-11.4v-8.8
	c0-7.5,3.9-11.4,11.4-11.4h58.5c7.5,0,11.4,4,11.4,11.4v3.3c0,5.8-1.4,9.8-5.1,14.2L64,401c19.6,5.1,28.7,20.5,28.7,34.8
	c0,21.4-14.4,44.1-48.5,44.1c-16.6,0-28.2-4.7-35.9-9.5C2.5,466.3,2,460.7,5.7,454.6L5.7,454.6z M144,132h352c8.8,0,16-7.2,16-16V76
	c0-8.8-7.2-16-16-16H144c-8.8,0-16,7.2-16,16v40C128,124.8,135.2,132,144,132z M144,292h352c8.8,0,16-7.2,16-16v-40
	c0-8.8-7.2-16-16-16H144c-8.8,0-16,7.2-16,16v40C128,284.8,135.2,292,144,292z M144,452h352c8.8,0,16-7.2,16-16v-40
	c0-8.8-7.2-16-16-16H144c-8.8,0-16,7.2-16,16v40C128,444.8,135.2,452,144,452z"/>
</svg>
