<?xml version="1.0" encoding="UTF-8" standalone="no"?>
<!-- Created with Inkscape (http://www.inkscape.org/) -->
<svg
   xmlns:dc="http://purl.org/dc/elements/1.1/"
   xmlns:cc="http://creativecommons.org/ns#"
   xmlns:rdf="http://www.w3.org/1999/02/22-rdf-syntax-ns#"
   xmlns:svg="http://www.w3.org/2000/svg"
   xmlns="http://www.w3.org/2000/svg"
   xmlns:sodipodi="http://sodipodi.sourceforge.net/DTD/sodipodi-0.dtd"
   xmlns:inkscape="http://www.inkscape.org/namespaces/inkscape"
   width="252"
   height="45"
   id="svg2406"
   sodipodi:version="0.32"
   inkscape:version="0.46"
   version="1.0"
   sodipodi:docname="Lufthansa_Logo.svg"
   inkscape:output_extension="org.inkscape.output.svg.inkscape">
  <defs
     id="defs2408">
    <inkscape:perspective
       sodipodi:type="inkscape:persp3d"
       inkscape:vp_x="0 : 526.18109 : 1"
       inkscape:vp_y="0 : 1000 : 0"
       inkscape:vp_z="744.09448 : 526.18109 : 1"
       inkscape:persp3d-origin="372.04724 : 350.78739 : 1"
       id="perspective2414" />
  </defs>
  <sodipodi:namedview
     id="base"
     pagecolor="#ffffff"
     bordercolor="#666666"
     borderopacity="1.0"
     gridtolerance="10000"
     guidetolerance="10"
     objecttolerance="10"
     inkscape:pageopacity="0.0"
     inkscape:pageshadow="2"
     inkscape:zoom="3.0760328"
     inkscape:cx="126"
     inkscape:cy="22.500002"
     inkscape:document-units="px"
     inkscape:current-layer="layer1"
     showgrid="false"
     inkscape:showpageshadow="false"
     showborder="false"
     showguides="false"
     borderlayer="false">
    <inkscape:grid
       type="xygrid"
       id="grid2511"
       visible="true"
       enabled="true" />
  </sodipodi:namedview>
  <metadata
     id="metadata2411">
    <rdf:RDF>
      <cc:Work
         rdf:about="">
        <dc:format>image/svg+xml</dc:format>
        <dc:type
           rdf:resource="http://purl.org/dc/dcmitype/StillImage" />
      </cc:Work>
    </rdf:RDF>
  </metadata>
  <g
     inkscape:label="Layer 1"
     inkscape:groupmode="layer"
     id="layer1"
     transform="translate(376.42724,-690.96668)">
    <g
       id="g4"
       transform="matrix(2.512536,0,0,2.512536,-376.05404,690.85511)">
      <path
         d="M 8.886,0.484 C 4.061,0.484 0.25,4.247 0.25,9.035 C 0.25,13.736 4.061,17.515 8.741,17.515 C 13.472,17.515 17.252,13.746 17.252,9.022 C 17.252,4.347 13.477,0.484 8.886,0.484 M 8.741,16.646 C 4.527,16.646 1.137,13.236 1.137,9.022 C 1.137,4.82 4.556,1.365 8.677,1.365 C 13.005,1.365 16.362,4.743 16.362,9.034 C 16.362,13.268 12.948,16.646 8.741,16.646"
         id="path6"
         style="fill:#ffb300" />
      <path
         d="M 6.882,8.678 L 6.781,8.884 C 6.386,8.807 5.69,8.522 4.922,8.191 L 4.831,8.372 L 5.133,8.543 C 6.229,9.105 6.574,9.222 7.204,9.222 C 8.465,9.222 9.422,8.517 9.862,7.252 C 10.633,7.093 11.639,7.025 12.831,7.025 C 13.854,7.025 14.735,7.069 15.88,7.217 L 15.578,7.571 C 15.063,7.508 14.085,7.438 13.393,7.438 C 12.553,7.438 12.04,7.463 11.762,7.465 L 11.621,7.778 C 12.32,7.744 12.576,7.744 13.118,7.744 C 14.038,7.744 14.764,7.778 15.368,7.825 L 15.082,8.213 C 14.006,8.169 13.516,8.157 12.707,8.157 C 12.272,8.157 11.953,8.169 11.436,8.191 L 11.287,8.503 C 11.74,8.471 12.368,8.447 13.033,8.447 C 13.666,8.447 14.413,8.47 14.849,8.474 L 14.564,8.852 C 14.257,8.833 13.666,8.833 13.192,8.833 C 12.487,8.833 11.551,8.869 11.088,8.937 L 10.945,9.211 C 11.806,9.127 12.367,9.094 13.305,9.094 C 13.677,9.094 13.919,9.094 14.344,9.127 L 14.02,9.521 C 13.445,9.479 13.252,9.479 13.032,9.479 C 11.435,9.479 10.363,9.709 9.318,10.316 C 10.286,11.283 11.886,11.961 13.339,11.961 C 13.468,11.961 13.531,11.961 13.829,11.945 L 13.137,12.648 C 9.298,11.623 8.616,11.351 5.098,9.258 C 3.705,8.471 2.569,7.913 1.647,7.653 L 1.768,7.217 C 1.993,7.251 2.457,7.386 2.904,7.541 L 3.109,7.068"
         id="path8"
         style="fill:#ffb300" />
      <path
         d="M 99.518,13.559 L 99.518,9.375 C 99.518,7.22 98.28,6.168 95.747,6.168 C 93.318,6.168 91.873,7.285 91.863,9.124 L 94.312,9.124 C 94.312,8.417 94.838,7.998 95.691,7.998 C 96.392,7.998 96.873,8.288 96.873,8.761 C 96.873,9.166 96.641,9.335 96.081,9.456 C 94.736,9.693 93.943,9.873 93.71,9.943 C 92.161,10.371 91.341,11.248 91.341,12.472 C 91.341,13.951 92.663,15.037 94.488,15.037 C 95.554,15.037 96.144,14.806 97.121,14.016 L 97.271,14.7 L 99.75,14.7 C 99.518,14.256 99.518,14.256 99.518,13.559 M 96.96,11.352 C 96.96,12.574 96.346,13.139 95.051,13.139 C 94.368,13.139 93.961,12.844 93.961,12.315 C 93.961,11.772 94.389,11.428 95.252,11.211 C 95.613,11.119 95.943,11.049 96.234,10.996 C 96.495,10.896 96.618,10.875 96.96,10.789 L 96.96,11.352 L 96.96,11.352 z"
         id="path10"
         style="fill:#ffb300" />
      <path
         d="M 82.864,11.982 L 85.472,11.982 L 85.472,12.076 C 85.472,12.76 86.027,13.176 86.935,13.176 C 87.708,13.176 88.179,12.885 88.179,12.436 C 88.179,11.951 87.741,11.666 86.701,11.479 L 85.858,11.352 C 83.91,11 83.091,10.316 83.091,9.024 C 83.091,7.245 84.561,6.169 86.997,6.169 C 88.705,6.169 89.749,6.623 90.298,7.63 C 90.536,8.035 90.563,8.17 90.627,9.062 L 88.141,9.062 C 88.069,8.29 87.741,8.008 86.934,8.008 C 86.259,8.008 85.86,8.26 85.86,8.698 C 85.86,9.095 86.256,9.307 87.124,9.457 L 88.05,9.632 C 90.002,9.944 90.883,10.79 90.883,12.194 C 90.883,13.925 89.41,15.042 87.103,15.042 C 84.352,15.039 82.864,13.951 82.864,11.982"
         id="path12"
         style="fill:#ffb300" />
      <path
         d="M 73.516,13.559 L 73.516,9.375 C 73.516,7.22 72.264,6.168 69.729,6.168 C 67.313,6.168 65.864,7.268 65.864,9.124 L 68.299,9.124 C 68.323,8.399 68.829,7.998 69.687,7.998 C 70.41,7.998 70.898,8.288 70.898,8.761 C 70.898,9.166 70.669,9.335 70.085,9.456 C 68.745,9.71 67.957,9.873 67.723,9.943 C 66.149,10.371 65.354,11.248 65.354,12.472 C 65.354,13.951 66.678,15.037 68.475,15.037 C 69.547,15.037 70.26,14.765 71.128,14.016 L 71.277,14.7 L 73.747,14.7 C 73.516,14.27 73.516,14.27 73.516,13.559 M 70.95,11.352 C 70.95,12.574 70.337,13.139 69.05,13.139 C 68.387,13.139 67.979,12.844 67.979,12.315 C 67.979,11.772 68.403,11.428 69.278,11.211 C 69.632,11.139 69.918,11.065 70.249,10.996 C 70.497,10.896 70.61,10.875 70.952,10.789 L 70.95,11.352 L 70.95,11.352 z"
         id="path14"
         style="fill:#ffb300" />
      <path
         d="M 37.147,13.615 C 36.781,13.002 36.729,12.709 36.729,11.351 L 36.729,6.525 L 39.402,6.525 L 39.402,11.248 C 39.402,12.441 39.736,12.936 40.576,12.936 C 41.46,12.936 41.898,12.365 41.898,11.248 L 41.898,6.525 L 44.569,6.525 L 44.569,14.701 L 42.129,14.701 L 42.052,13.894 C 41.393,14.595 40.656,14.9 39.698,14.9 C 38.561,14.9 37.626,14.443 37.147,13.615"
         id="path16"
         style="fill:#ffb300" />
      <path
         d="M 79.604,14.701 L 79.604,10.049 C 79.604,8.855 79.264,8.356 78.419,8.356 C 77.555,8.356 77.124,8.932 77.124,10.049 L 77.124,14.701 L 74.453,14.701 L 74.453,6.525 L 76.886,6.525 L 76.973,7.438 C 77.593,6.624 78.346,6.27 79.33,6.27 C 80.471,6.27 81.386,6.765 81.861,7.628 C 82.207,8.254 82.277,8.606 82.277,9.943 L 82.277,14.7 L 79.604,14.701"
         id="path18"
         style="fill:#ffb300" />
      <path
         d="M 62.088,14.701 L 62.088,10.049 C 62.088,8.884 61.715,8.356 60.908,8.356 C 60.023,8.356 59.578,8.932 59.578,10.049 L 59.578,14.701 L 56.925,14.701 L 56.925,3.324 L 59.578,3.324 L 59.578,7.438 C 60.072,6.624 60.771,6.27 61.8,6.27 C 62.92,6.27 63.837,6.747 64.332,7.628 C 64.665,8.254 64.721,8.593 64.721,9.943 L 64.721,14.7 L 62.088,14.701"
         id="path20"
         style="fill:#ffb300" />
      <path
         d="M 54.337,14.701 C 52.766,14.701 52.042,13.951 52.042,12.297 L 52.042,8.326 L 50.93,8.326 L 50.93,6.525 L 52.042,6.525 L 52.042,3.941 L 54.701,3.941 L 54.701,6.525 L 56.202,6.525 L 56.202,8.326 L 54.701,8.326 L 54.701,11.556 C 54.73,12.758 54.802,12.818 55.81,12.818 L 56.331,12.818 L 56.331,14.701 L 54.337,14.701"
         id="path22"
         style="fill:#ffb300" />
      <path
         d="M 46.27,14.701 L 46.27,8.326 L 45.108,8.326 L 45.108,6.525 L 46.27,6.525 L 46.27,6.271 C 46.27,4.117 47.068,3.325 49.158,3.325 L 50.617,3.325 L 50.617,5.12 L 50.17,5.12 C 49.194,5.12 48.931,5.364 48.931,6.271 L 48.931,6.526 L 50.507,6.526 L 50.507,8.327 L 48.931,8.327 L 48.931,14.702 L 46.27,14.701"
         id="path24"
         style="fill:#ffb300" />
      <polyline
         points="28.582,14.701 28.582,3.324 31.422,3.324 31.422,12.443 36.21,12.443 36.21,14.701  "
         id="polyline26"
         style="fill:#ffb300" />
    </g>
  </g>
</svg>
