<?xml version="1.0" encoding="utf-8"?>
<!-- Generator: Adobe Illustrator 21.1.0, SVG Export Plug-In . SVG Version: 6.00 Build 0)  -->
<svg version="1.1" id="Layer_1" xmlns="http://www.w3.org/2000/svg" xmlns:xlink="http://www.w3.org/1999/xlink" x="0px" y="0px"
	 viewBox="0 0 17 17" style="enable-background:new 0 0 17 17;" xml:space="preserve">
<style type="text/css">
	.st0{fill:none;}
	.st1{fill:#5B5B5C;}
</style>
<title>Combined Shape</title>
<desc>Created using Figma</desc>
<rect class="st0" width="17" height="17"/>
<path class="st1" d="M15,2.8c-0.2-0.3-0.6-0.7-1.6-0.8c0.3,0-9.8,0-9.8,0C3.3,2,3.2,2,2.8,2C2.5,2.2,2.2,2.6,2,3.6
	c0-0.4,0,9.8,0,9.8c0,0.4,0,0.4,0,0.8c0.2,0.2,0.6,0.7,1.6,0.8c-0.3,0,9.8,0,9.8,0c0.3,0,0.4,0,0.8,0c0.2-0.2,0.7-0.6,0.8-1.6
	c0,0.4,0-9.8,0-9.8C15,3.3,15,3.2,15,2.8z M8.5,6C9.9,6,11,7.1,11,8.5S9.9,11,8.5,11S6,9.9,6,8.5S7.1,6,8.5,6z M14,14H3V8h2
	c0,0-0.4,4,3.5,4S12,8,12,8h2V14z M14,6h-2V4h2V6z"/>
</svg>
