<?xml version="1.0" encoding="utf-8"?>
<!-- Generator: Adobe Illustrator 21.1.0, SVG Export Plug-In . SVG Version: 6.00 Build 0)  -->
<svg version="1.1" id="Layer_1" xmlns="http://www.w3.org/2000/svg" xmlns:xlink="http://www.w3.org/1999/xlink" x="0px" y="0px"
	 viewBox="0 0 17 17" style="enable-background:new 0 0 17 17;" xml:space="preserve">
<style type="text/css">
	.st0{fill:none;}
	.st1{fill:#5B5B5C;}
</style>
<title>Combined Shape</title>
<desc>Created using Figma</desc>
<rect class="st0" width="17" height="17"/>
<path id="path0_fill" class="st1" d="M8.1,5.7c0,0.2,0,0.5,0.1,0.7C5.6,6.3,3.4,5.1,1.9,3.2c-0.3,0.4-0.4,1-0.4,1.5
	c0,1,0.5,2,1.4,2.5c-0.5,0-1-0.2-1.4-0.4l0,0c0,1.5,1.1,2.7,2.5,3C3.7,9.9,3.5,9.9,3.2,9.9c-0.2,0-0.4,0-0.6-0.1
	C3,11,4.1,11.9,5.5,11.9c-1.1,0.8-2.4,1.3-3.8,1.3c-0.2,0-0.5,0-0.7,0c1.4,0.9,3,1.4,4.7,1.4c5.7,0,8.8-4.6,8.8-8.6
	c0-0.1,0-0.3,0-0.4c0.6-0.4,1.1-1,1.5-1.6c-0.6,0.2-1.1,0.4-1.8,0.5c0.6-0.4,1.1-1,1.4-1.7c-0.6,0.3-1.3,0.6-2,0.7
	c-0.6-0.6-1.4-1-2.2-1C9.5,2.7,8.1,4.1,8.1,5.7L8.1,5.7z"/>
</svg>
