<?xml version="1.0" encoding="utf-8"?>
<!-- Generator: Adobe Illustrator 21.1.0, SVG Export Plug-In . SVG Version: 6.00 Build 0)  -->
<svg version="1.1" id="Layer_1" xmlns="http://www.w3.org/2000/svg" xmlns:xlink="http://www.w3.org/1999/xlink" x="0px" y="0px"
	 viewBox="0 0 17 17" style="enable-background:new 0 0 17 17;" xml:space="preserve">
<style type="text/css">
	.st0{fill:none;}
	.st1{fill:#5B5B5C;}
</style>
<title>Combined Shape</title>
<desc>Created using Figma</desc>
<rect class="st0" width="17" height="17"/>
<path id="path0_fill_1_" class="st1" d="M15.4,7.9c0-3.2-2.8-6.3-6.2-6.4c-0.1,0-0.1,0-0.2,0c-0.1,0-0.2,0-0.3,0s-0.1,0-0.2,0.1
	C8.4,1.7,8.4,1.8,8.4,1.9c0,0.4,0.4,0.3,0.7,0.4c3.5,0.5,5.1,2.2,5.5,5.6c0,0.1,0,0.1,0,0.2c0,0.3,0,0.6,0.4,0.6
	C15.5,8.7,15.4,8.3,15.4,7.9z M12.5,15.5L12.5,15.5L12.5,15.5h0.2c1.1,0,2.4-1,2.7-2c0.2-0.5,0.1-0.8-0.1-1.1
	c-0.2-0.3-0.6-0.5-0.8-0.7c-0.4-0.3-0.9-0.7-1.4-1c-0.9-0.6-1.7-0.7-2.4,0.3c-0.4,0.6-0.9,0.6-1.5,0.3C7.7,10.6,6.5,9.6,5.8,8
	C5.5,7.3,5.5,6.7,6.2,6.2C6.6,5.9,7,5.6,6.9,5.1c0-0.7-1.8-3.2-2.5-3.4c-0.1,0-0.2-0.1-0.3-0.1s-0.1,0-0.2,0c-0.1,0-0.3,0-0.4,0.1
	C1.8,2.2,1.1,3.6,1.8,5.2c2,4.7,5.4,8,10.2,10.1c0.1,0,0.2,0.1,0.3,0.1C12.3,15.5,12.4,15.5,12.5,15.5z M13.6,7.4c0,0.1,0,0.1,0,0.2
	c0,0.2,0,0.5-0.3,0.5c-0.5,0.1-0.4-0.4-0.5-0.7c-0.4-2.1-1.1-2.9-3.3-3.3c-0.1,0-0.1,0-0.2,0C9.1,4.1,8.9,4,8.8,3.9
	c0-0.1-0.1-0.2,0-0.3c0.1-0.4,0.4-0.3,0.7-0.3l0,0c0.1,0,0.1,0,0.1,0C11.9,3.5,13.7,5.4,13.6,7.4z M11.7,7.6C12,7.6,12,7.3,12,7
	c0-1-1.1-2.1-2.1-2.1c-0.2,0-0.4,0-0.5,0.3C9.3,5.6,9.5,5.6,9.8,5.7c0.5,0.1,0.8,0.3,1.1,0.5c0.2,0.2,0.3,0.6,0.4,1
	C11.3,7.4,11.4,7.6,11.7,7.6z"/>
</svg>
