<?xml version="1.0" encoding="utf-8"?>
<!-- Generator: Adobe Illustrator 21.1.0, SVG Export Plug-In . SVG Version: 6.00 Build 0)  -->
<svg version="1.1" id="Layer_1" xmlns="http://www.w3.org/2000/svg" xmlns:xlink="http://www.w3.org/1999/xlink" x="0px" y="0px"
	 viewBox="0 0 17 17" style="enable-background:new 0 0 17 17;" xml:space="preserve">
<style type="text/css">
	.st0{fill:none;}
	.st1{fill:#5B5B5C;}
</style>
<title>Combined Shape</title>
<desc>Created using Figma</desc>
<rect class="st0" width="17" height="17"/>
<path id="path0_fill_2_" class="st1" d="M9.4,12.7c0,0,0.3,0,0.4-0.2c0.1-0.1,0.1-0.4,0.1-0.4s0-1.3,0.6-1.5s1.3,1.2,2.1,1.8
	c0.6,0.4,1.1,0.3,1.1,0.3h2.1c0,0,1.1-0.1,0.6-0.9c0-0.1-0.3-0.6-1.6-1.8c-1.3-1.2-1.2-1,0.5-3.1c1-1.3,1.3-2.4,1.2-2.7
	C16.4,3.9,15.7,4,15.7,4h-2.4c0,0-0.2,0-0.3,0.1c-0.1,0.1-0.2,0.3-0.2,0.3s-0.3,1.3-0.9,2.2c-1.1,1.8-1.5,1.9-1.7,1.8
	c-0.4-0.3-0.3-1-0.3-1.6c0-1.7,0.3-2.5-0.5-2.6C9.1,4.1,8.9,4.1,8.3,4.1c-0.9,0-1.6,0-2,0.2C6,4.4,5.8,4.7,5.9,4.7
	c0.2,0,0.5,0.1,0.7,0.4s0.2,1.1,0.2,1.1s0.1,2-0.3,2.3C6.2,8.7,5.7,8.3,4.8,6.7C4.3,5.9,3.9,4.5,3.9,4.5S3.8,4.3,3.7,4.2
	C3.5,4.1,3.3,4.1,3.3,4.1H1c0,0-0.3,0-0.5,0.2c-0.1,0.1,0,0.4,0,0.4s1.8,4.5,3.8,6.6c1.9,1.9,4,1.8,4,1.8L9.4,12.7L9.4,12.7z"/>
</svg>
